<?xml version="1.0" standalone="no"?>
<!DOCTYPE svg PUBLIC "-//W3C//DTD SVG 20010904//EN"
 "http://www.w3.org/TR/2001/REC-SVG-20010904/DTD/svg10.dtd">
<svg version="1.0" xmlns="http://www.w3.org/2000/svg"
 width="250.000000pt" height="250.000000pt" viewBox="0 0 250.000000 250.000000"
 preserveAspectRatio="xMidYMid meet">

<g transform="translate(0.000000,250.000000) scale(0.100000,-0.100000)"
fill="#797979" stroke="none">
<path d="M479 2177 c-68 -36 -103 -93 -107 -175 -3 -56 0 -74 20 -112 64 -119
223 -147 325 -57 117 103 86 291 -59 351 -55 23 -127 20 -179 -7z"/>
<path d="M1835 2182 c-140 -67 -167 -248 -52 -349 46 -41 97 -56 163 -51 190
16 253 272 96 383 -55 38 -146 46 -207 17z"/>
<path d="M345 1721 c-22 -10 -57 -37 -78 -60 -48 -53 -267 -490 -267 -532 0
-69 100 -108 147 -56 11 12 65 108 119 212 l99 190 3 -562 2 -561 31 -26 c53
-45 126 -27 148 36 7 19 11 137 11 309 0 272 0 279 20 279 20 0 20 -7 20 -296
l0 -296 29 -29 c41 -40 91 -40 132 0 l29 29 1 559 0 558 77 -152 c42 -84 79
-153 82 -153 3 0 17 21 32 45 15 25 43 55 62 66 l35 20 -30 67 c-112 249 -175
339 -255 361 -22 6 -122 11 -224 11 -157 0 -191 -3 -225 -19z"/>
<path d="M1701 1729 c-65 -19 -121 -92 -205 -264 -71 -145 -76 -161 -60 -170
34 -19 93 -77 99 -96 4 -10 9 -19 13 -19 4 0 38 61 77 135 38 74 71 132 73
130 2 -1 -15 -98 -38 -215 l-41 -212 31 -65 c16 -36 30 -76 30 -90 0 -31 -25
-79 -47 -92 -14 -8 -8 -10 30 -11 l47 0 0 -201 0 -201 29 -29 c22 -21 39 -29
66 -29 27 0 44 8 66 29 l29 29 0 201 c0 194 1 201 20 201 19 0 20 -7 20 -185
0 -197 8 -243 48 -264 37 -20 87 -13 115 15 l27 26 2 202 3 201 73 3 c39 2 72
7 72 11 0 5 -31 161 -70 346 -38 185 -70 340 -70 343 0 4 44 -76 96 -178 53
-102 106 -195 117 -207 47 -52 147 -13 147 56 0 42 -219 479 -267 532 -65 72
-90 79 -308 78 -104 0 -205 -5 -224 -10z"/>
<path d="M1195 1551 c-95 -43 -113 -169 -34 -235 61 -51 144 -43 200 21 29 34
31 40 27 95 -3 47 -10 64 -33 88 -25 26 -78 50 -110 50 -5 0 -28 -9 -50 -19z"/>
<path d="M1094 1246 c-44 -19 -71 -59 -153 -223 -90 -181 -92 -229 -9 -221 31
3 37 10 105 138 l73 135 0 -365 c0 -315 2 -369 16 -388 19 -28 67 -29 94 -2
19 19 20 33 20 216 0 152 3 195 13 191 9 -3 12 -51 12 -195 0 -172 2 -192 19
-211 24 -27 68 -27 91 -1 17 19 18 45 18 373 -1 193 1 356 4 360 3 5 35 -47
70 -115 36 -67 70 -126 77 -131 23 -15 70 -2 85 24 13 24 10 34 -61 180 -81
167 -114 214 -165 235 -44 19 -266 18 -309 0z"/>
</g>
</svg>
