<?xml version="1.0" standalone="no"?>
<!DOCTYPE svg PUBLIC "-//W3C//DTD SVG 20010904//EN"
 "http://www.w3.org/TR/2001/REC-SVG-20010904/DTD/svg10.dtd">
<svg version="1.0" xmlns="http://www.w3.org/2000/svg"
 width="600.000000pt" height="600.000000pt" viewBox="0 0 600.000000 600.000000"
 preserveAspectRatio="xMidYMid meet">

<g transform="translate(0.000000,600.000000) scale(0.100000,-0.100000)"
fill="#797979" stroke="none">
<path d="M2750 5989 c-513 -45 -985 -210 -1416 -496 -896 -594 -1409 -1648
-1324 -2719 70 -876 495 -1651 1195 -2174 214 -160 454 -294 710 -396 185 -73
270 -69 320 16 19 33 20 48 17 330 -2 162 -5 296 -7 298 -2 2 -39 -2 -82 -9
-44 -8 -152 -13 -248 -13 -141 1 -183 5 -250 22 -121 33 -217 85 -289 156 -53
52 -73 83 -134 206 -112 230 -200 350 -310 423 -94 63 -134 107 -130 143 4 41
58 57 162 51 156 -10 297 -111 436 -312 165 -239 324 -325 573 -313 78 4 125
13 197 37 l95 32 22 89 c26 110 70 202 124 264 23 26 40 48 38 50 -2 2 -56 11
-119 20 -737 109 -1124 477 -1215 1156 -21 153 -21 420 -1 530 37 204 112 362
265 560 19 25 19 26 -6 120 -33 123 -38 338 -10 467 18 84 60 220 72 232 13
13 153 2 231 -18 147 -38 347 -131 526 -246 l66 -43 74 19 c351 90 789 105
1168 38 63 -11 147 -28 186 -38 l71 -18 94 59 c226 143 452 235 621 253 98 10
112 1 143 -95 69 -219 74 -491 12 -664 l-14 -40 51 -63 c106 -132 189 -304
227 -472 53 -231 27 -625 -57 -886 -37 -112 -115 -268 -173 -346 -67 -88 -196
-210 -282 -266 -189 -121 -482 -218 -756 -248 -35 -4 -63 -9 -63 -12 0 -3 18
-25 39 -49 48 -52 93 -138 123 -236 21 -70 22 -92 27 -608 7 -595 3 -567 74
-610 55 -34 111 -27 270 36 944 372 1639 1196 1842 2183 163 792 6 1605 -441
2276 -556 836 -1511 1343 -2514 1334 -74 -1 -178 -5 -230 -10z"/>
</g>
</svg>
