<?xml version="1.0" standalone="no"?>
<!DOCTYPE svg PUBLIC "-//W3C//DTD SVG 20010904//EN"
 "http://www.w3.org/TR/2001/REC-SVG-20010904/DTD/svg10.dtd">
<svg version="1.0" xmlns="http://www.w3.org/2000/svg"
 width="50.000000pt" height="50.000000pt" viewBox="0 0 50.000000 50.000000"
 preserveAspectRatio="xMidYMid meet">

<g transform="translate(0.000000,50.000000) scale(0.100000,-0.100000)"
fill="#797979" stroke="none">
<path d="M167 486 c-55 -21 -103 -61 -134 -114 -24 -40 -28 -58 -28 -123 0
-67 4 -81 30 -125 99 -159 326 -164 425 -8 101 160 -4 368 -192 380 -39 3 -77
-1 -101 -10z m120 -68 c31 -30 33 -31 33 -10 0 18 6 22 30 22 29 0 30 -1 30
-52 0 -43 5 -57 27 -80 21 -22 23 -28 10 -28 -15 0 -17 -13 -17 -95 l0 -95
-50 0 -50 0 0 75 0 75 -50 0 -50 0 0 -75 0 -75 -50 0 -50 0 0 95 c0 83 -2 95
-17 95 -11 0 15 33 72 90 49 50 92 90 94 90 3 0 20 -14 38 -32z m-7 -268 l0
-70 -30 0 -30 0 0 70 0 70 30 0 30 0 0 -70z"/>
</g>
</svg>
