<?xml version="1.0" standalone="no"?>
<!DOCTYPE svg PUBLIC "-//W3C//DTD SVG 20010904//EN"
 "http://www.w3.org/TR/2001/REC-SVG-20010904/DTD/svg10.dtd">
<svg version="1.0" xmlns="http://www.w3.org/2000/svg"
 width="512.000000pt" height="512.000000pt" viewBox="0 0 512.000000 512.000000"
 preserveAspectRatio="xMidYMid meet">

<g transform="translate(0.000000,512.000000) scale(0.100000,-0.100000)"
fill="#797979" stroke="none">
<path d="M2370 4804 c-525 -61 -989 -276 -1363 -633 -296 -283 -531 -688 -631
-1090 -53 -210 -60 -280 -61 -556 0 -292 15 -408 81 -638 260 -904 1050 -1556
1994 -1648 148 -14 398 -7 550 16 901 136 1644 804 1874 1685 108 413 99 856
-25 1255 -230 741 -816 1316 -1556 1529 -211 61 -340 78 -598 81 -126 2 -246
1 -265 -1z m-458 -1087 c154 -90 183 -293 60 -416 -58 -58 -119 -81 -217 -81
-129 0 -212 46 -261 145 -56 115 -23 261 73 329 68 48 98 56 203 53 83 -2 102
-6 142 -30z m1513 -692 c211 -44 357 -187 426 -415 23 -73 23 -86 27 -622 l3
-548 -255 0 -254 0 -4 473 c-4 444 -5 476 -25 534 -27 80 -54 117 -111 150
-41 24 -58 28 -127 28 -63 0 -89 -5 -122 -23 -57 -30 -105 -80 -134 -138 l-24
-49 -3 -487 -3 -488 -259 0 -260 0 0 780 0 780 260 0 260 0 0 -107 1 -108 21
30 c129 180 349 259 583 210z m-1415 -805 l0 -780 -255 0 -255 0 0 780 0 780
255 0 255 0 0 -780z"/>
</g>
</svg>
