<?xml version="1.0" standalone="no"?>
<!DOCTYPE svg PUBLIC "-//W3C//DTD SVG 20010904//EN"
 "http://www.w3.org/TR/2001/REC-SVG-20010904/DTD/svg10.dtd">
<svg version="1.0" xmlns="http://www.w3.org/2000/svg"
 width="637.000000pt" height="637.000000pt" viewBox="0 0 637.000000 637.000000"
 preserveAspectRatio="xMidYMid meet">

<g transform="translate(0.000000,637.000000) scale(0.100000,-0.100000)"
fill="#797979" stroke="none">
<path d="M2910 6358 c-621 -52 -1230 -298 -1725 -694 -141 -113 -366 -338
-479 -479 -916 -1143 -943 -2750 -65 -3915 520 -690 1283 -1132 2154 -1246
165 -22 580 -25 740 -6 586 72 1097 274 1558 619 692 516 1137 1282 1254 2158
24 181 24 599 0 780 -76 570 -283 1079 -620 1527 -658 875 -1722 1349 -2817
1256z m1111 -1038 c48 -13 118 -75 140 -124 16 -36 19 -70 19 -298 l0 -258
259 0 c143 0 294 -5 337 -11 151 -21 272 -81 377 -186 76 -77 129 -163 165
-268 l27 -80 3 -1000 c2 -651 -1 -1027 -7 -1078 -35 -261 -190 -452 -448 -550
l-58 -22 -1615 -3 c-1810 -3 -1686 -8 -1843 71 -111 55 -227 170 -279 277 -77
157 -73 80 -73 1255 l0 1050 27 80 c68 199 214 353 401 421 98 35 196 44 478
44 l259 0 0 258 c0 228 3 262 19 298 21 46 91 111 136 123 43 13 1631 13 1676
1z"/>
<path d="M2407 5103 c-4 -3 -7 -109 -7 -235 l0 -228 785 0 785 0 -2 233 -3
232 -776 3 c-426 1 -779 -1 -782 -5z"/>
<path d="M1573 4405 c-204 -55 -333 -228 -333 -445 0 -63 2 -68 28 -80 311
-145 567 -254 813 -343 173 -64 463 -157 487 -157 8 0 12 23 12 78 0 53 6 90
19 118 22 48 82 101 131 114 46 13 864 13 910 0 49 -13 109 -66 131 -114 13
-28 19 -65 19 -118 0 -52 4 -78 11 -78 22 0 253 72 409 127 247 87 648 255
883 369 l37 18 0 66 c0 218 -131 391 -335 445 -52 13 -248 15 -1615 14 -1305
0 -1563 -3 -1607 -14z"/>
<path d="M1240 2847 c0 -680 2 -812 15 -860 38 -148 136 -254 285 -308 l65
-24 1580 0 1580 0 65 24 c155 57 261 178 290 331 16 84 14 1644 -2 1637 -7 -3
-87 -39 -178 -80 -379 -170 -727 -299 -1092 -402 l-58 -16 0 -100 c0 -146 -27
-199 -125 -245 l-50 -24 -430 0 -430 0 -50 24 c-98 46 -125 99 -125 245 l0
100 -57 16 c-349 98 -759 250 -1136 421 -78 35 -142 64 -144 64 -2 0 -3 -361
-3 -803z"/>
<path d="M2790 3240 l0 -240 395 0 395 0 0 240 0 240 -395 0 -395 0 0 -240z"/>
</g>
</svg>
